<svg xmlns="http://www.w3.org/2000/svg" width="10.436" height="12.547" viewBox="0 0 10.436 12.547">
  <path id="Path_42" data-name="Path 42" d="M689.438,3626.913l-.143-.054-.017.028.134.114a3.73,3.73,0,0,1-.535.948,2.962,2.962,0,0,1-1.026.832.433.433,0,0,1-.652-.388c-.011-.757-.011-1.515-.034-2.272a4.905,4.905,0,0,0-.112-.928,1.375,1.375,0,0,0-.521-.8.683.683,0,0,0-.969.15,1.651,1.651,0,0,0-.434,1.051c-.027.923-.046,1.846-.066,2.769a.43.43,0,0,1-.437.468.838.838,0,0,1-.321-.108,3.042,3.042,0,0,1-1.243-1.272,5.312,5.312,0,0,1-.6-2.142c-.037-.473-.035-.95-.036-1.425a1.9,1.9,0,0,0-.224-1.028,4,4,0,0,0-.306-.375,4.571,4.571,0,0,1-.769-1.517,4.452,4.452,0,0,1-.205-1.664,3.1,3.1,0,0,1,1.349-2.414,3.26,3.26,0,0,1,1.331-.557,2.643,2.643,0,0,1,1.109.033,4.985,4.985,0,0,1,1.1.432.678.678,0,0,0,.659-.009,3.969,3.969,0,0,1,1.51-.491,2.78,2.78,0,0,1,1,.11,3.3,3.3,0,0,1,1.681,1.109,3.008,3.008,0,0,1,.644,1.49,4.272,4.272,0,0,1-.094,1.673,4.784,4.784,0,0,1-.794,1.739,1.8,1.8,0,0,1-.182.217,1.353,1.353,0,0,0-.388.941c-.02.36,0,.721,0,1.082a7.112,7.112,0,0,1-.289,1.944c-.031.1-.076.206-.115.309m-4.917,1.318c.006-.057.013-.1.014-.148,0-.215,0-.429,0-.643.017-.642.022-1.284.062-1.924a2.143,2.143,0,0,1,.681-1.444,1.217,1.217,0,0,1,1.424-.2,1.9,1.9,0,0,1,.782.934,2.872,2.872,0,0,1,.21,1.136c.015.713.019,1.427.029,2.14,0,.046.009.091.015.142a2.4,2.4,0,0,0,.815-.745,4.211,4.211,0,0,0,.61-1.528,8.025,8.025,0,0,0,.136-1.987,3.248,3.248,0,0,1,.012-.474,2.039,2.039,0,0,1,.392-1.076c.137-.176.3-.335.418-.522a4.384,4.384,0,0,0,.658-1.845,3.1,3.1,0,0,0-.166-1.565,2.723,2.723,0,0,0-2.4-1.662,2.8,2.8,0,0,0-1.411.4,1.294,1.294,0,0,1-1.137.1c-.183-.073-.354-.173-.534-.251a2.444,2.444,0,0,0-1.233-.239,2.792,2.792,0,0,0-1.512.643,2.49,2.49,0,0,0-.815,1.217,3.282,3.282,0,0,0-.092,1.388,4.4,4.4,0,0,0,.631,1.78c.127.2.3.372.444.562a2.24,2.24,0,0,1,.407,1.468,9.192,9.192,0,0,0,.089,1.824,4.5,4.5,0,0,0,.578,1.654,2.376,2.376,0,0,0,.891.864" transform="translate(-680.912 -3616.291)" fill="#646b6a"/>
</svg>
