<svg xmlns="http://www.w3.org/2000/svg" width="9.367" height="11.41" viewBox="0 0 9.367 11.41">
  <path id="Path_44" data-name="Path 44" d="M8166.064,3431.524c0-.057.012-.1.014-.148,0-.215,0-.429,0-.642.016-.643.021-1.285.061-1.925a2.142,2.142,0,0,1,.682-1.444,1.214,1.214,0,0,1,1.424-.194,1.891,1.891,0,0,1,.782.933,2.876,2.876,0,0,1,.21,1.136c.013.713.019,1.427.029,2.14a1.175,1.175,0,0,0,.015.142,2.4,2.4,0,0,0,.814-.745,4.194,4.194,0,0,0,.611-1.528,8.022,8.022,0,0,0,.135-1.987,2.953,2.953,0,0,1,.013-.474,2.024,2.024,0,0,1,.392-1.075c.136-.177.3-.336.418-.523a4.4,4.4,0,0,0,.658-1.845,3.11,3.11,0,0,0-.167-1.565,2.724,2.724,0,0,0-2.4-1.662,2.8,2.8,0,0,0-1.41.4,1.3,1.3,0,0,1-1.138.1c-.182-.073-.353-.172-.534-.251a2.439,2.439,0,0,0-1.232-.239,2.793,2.793,0,0,0-1.512.643,2.481,2.481,0,0,0-.816,1.217,3.3,3.3,0,0,0-.091,1.388,4.394,4.394,0,0,0,.631,1.78c.126.2.3.372.443.562a2.234,2.234,0,0,1,.407,1.468,9.191,9.191,0,0,0,.09,1.824,4.491,4.491,0,0,0,.578,1.654,2.37,2.37,0,0,0,.891.864" transform="translate(-8162.99 -3420.114)" fill="#81d3c5"/>
</svg>
